<svg xmlns="http://www.w3.org/2000/svg" xmlns:xlink="http://www.w3.org/1999/xlink" width="60" zoomAndPan="magnify" viewBox="0 0 45 44.999999" height="60" preserveAspectRatio="xMidYMid meet" version="1.0"><defs><clipPath id="d79ccece26"><path d="M 19 9.109375 L 26 9.109375 L 26 20 L 19 20 Z M 19 9.109375 " clip-rule="nonzero"/></clipPath><clipPath id="691bae2d1c"><path d="M 19 9.109375 L 26 9.109375 L 26 21 L 19 21 Z M 19 9.109375 " clip-rule="nonzero"/></clipPath><clipPath id="e8e45e659f"><path d="M 25 9.109375 L 31 9.109375 L 31 18 L 25 18 Z M 25 9.109375 " clip-rule="nonzero"/></clipPath><clipPath id="f213b0052a"><path d="M 14 9.109375 L 20 9.109375 L 20 18 L 14 18 Z M 14 9.109375 " clip-rule="nonzero"/></clipPath><clipPath id="52e80c4ccf"><path d="M 9.988281 21 L 19 21 L 19 28 L 9.988281 28 Z M 9.988281 21 " clip-rule="nonzero"/></clipPath><clipPath id="2686b32aa3"><path d="M 19 27 L 26 27 L 26 36.109375 L 19 36.109375 Z M 19 27 " clip-rule="nonzero"/></clipPath><clipPath id="5ecc001418"><path d="M 27 22 L 34.738281 22 L 34.738281 27 L 27 27 Z M 27 22 " clip-rule="nonzero"/></clipPath><clipPath id="4e8b3ac806"><path d="M 26 21 L 34.738281 21 L 34.738281 28 L 26 28 Z M 26 21 " clip-rule="nonzero"/></clipPath><clipPath id="e5c13f1a67"><path d="M 20 11.203125 L 25 11.203125 L 25 21 L 20 21 Z M 20 11.203125 " clip-rule="nonzero"/></clipPath><clipPath id="c5f2491c30"><path d="M 25 11.203125 L 30 11.203125 L 30 18 L 25 18 Z M 25 11.203125 " clip-rule="nonzero"/></clipPath><clipPath id="4d10a8f167"><path d="M 15 11.203125 L 21 11.203125 L 21 18 L 15 18 Z M 15 11.203125 " clip-rule="nonzero"/></clipPath><clipPath id="dd95a4bf71"><path d="M 12.09375 21 L 19 21 L 19 26 L 12.09375 26 Z M 12.09375 21 " clip-rule="nonzero"/></clipPath><clipPath id="d247c3a710"><path d="M 12.09375 21 L 19 21 L 19 27 L 12.09375 27 Z M 12.09375 21 " clip-rule="nonzero"/></clipPath><clipPath id="52254c8615"><path d="M 20 27 L 25 27 L 25 33.703125 L 20 33.703125 Z M 20 27 " clip-rule="nonzero"/></clipPath><clipPath id="27679aa045"><path d="M 20 26 L 25 26 L 25 33.703125 L 20 33.703125 Z M 20 26 " clip-rule="nonzero"/></clipPath></defs><g clip-path="url(#d79ccece26)"><path fill="#ffffff" d="M 22.449219 19.972656 C 20.839844 18.734375 19.882812 16.792969 19.882812 14.734375 C 19.882812 12.675781 20.839844 10.730469 22.449219 9.492188 C 22.847656 9.800781 23.207031 10.152344 23.527344 10.542969 C 24.484375 11.714844 25.011719 13.203125 25.011719 14.734375 C 25.011719 16.792969 24.058594 18.734375 22.449219 19.972656 Z M 22.449219 19.972656 " fill-opacity="1" fill-rule="nonzero"/></g><g clip-path="url(#691bae2d1c)"><path fill="#000000" d="M 22.449219 9.875 C 22.761719 10.132812 23.046875 10.417969 23.300781 10.734375 C 24.214844 11.855469 24.71875 13.273438 24.71875 14.734375 C 24.71875 16.621094 23.878906 18.40625 22.449219 19.59375 C 21.019531 18.40625 20.179688 16.621094 20.179688 14.734375 C 20.179688 12.84375 21.019531 11.058594 22.449219 9.875 M 22.449219 9.121094 C 20.722656 10.363281 19.589844 12.414062 19.589844 14.734375 C 19.589844 17.054688 20.722656 19.101562 22.449219 20.34375 C 24.175781 19.101562 25.308594 17.054688 25.308594 14.734375 C 25.308594 13.066406 24.722656 11.539062 23.753906 10.351562 C 23.375 9.886719 22.933594 9.472656 22.449219 9.121094 Z M 22.449219 9.121094 " fill-opacity="1" fill-rule="nonzero"/></g><path fill="#ffffff" d="M 15.835938 31.902344 C 15.167969 29.960938 15.433594 27.804688 16.554688 26.09375 C 17.671875 24.378906 19.523438 23.304688 21.539062 23.183594 C 21.703125 23.660156 21.8125 24.160156 21.863281 24.664062 C 22.023438 26.183594 21.652344 27.71875 20.820312 28.992188 C 19.699219 30.707031 17.847656 31.78125 15.835938 31.902344 Z M 15.835938 31.902344 " fill-opacity="1" fill-rule="nonzero"/><path fill="#000000" d="M 21.332031 23.5 C 21.449219 23.890625 21.53125 24.289062 21.574219 24.695312 C 21.722656 26.144531 21.371094 27.613281 20.574219 28.828125 C 19.546875 30.398438 17.875 31.410156 16.042969 31.585938 C 15.496094 29.792969 15.769531 27.832031 16.796875 26.257812 C 17.824219 24.6875 19.496094 23.679688 21.332031 23.5 M 21.738281 22.875 C 19.625 22.929688 17.570312 23.996094 16.308594 25.925781 C 15.046875 27.855469 14.871094 30.203125 15.632812 32.210938 C 17.746094 32.15625 19.800781 31.089844 21.0625 29.160156 C 21.972656 27.769531 22.316406 26.171875 22.15625 24.632812 C 22.09375 24.03125 21.953125 23.441406 21.738281 22.875 Z M 21.738281 22.875 " fill-opacity="1" fill-rule="nonzero"/><path fill="#ffffff" d="M 17.75 22.199219 C 16.886719 22.199219 16.039062 22.019531 15.234375 21.671875 C 13.378906 20.867188 11.996094 19.210938 11.507812 17.21875 C 12.488281 16.640625 13.597656 16.339844 14.730469 16.339844 C 15.59375 16.339844 16.441406 16.515625 17.242188 16.863281 C 19.101562 17.667969 20.480469 19.324219 20.972656 21.320312 C 20.539062 21.570312 20.078125 21.773438 19.601562 21.921875 C 19 22.105469 18.375 22.199219 17.75 22.199219 Z M 17.75 22.199219 " fill-opacity="1" fill-rule="nonzero"/><path fill="#000000" d="M 14.730469 16.636719 C 15.554688 16.636719 16.363281 16.804688 17.128906 17.136719 C 18.832031 17.875 20.117188 19.363281 20.628906 21.167969 C 20.273438 21.359375 19.902344 21.515625 19.519531 21.632812 C 18.941406 21.808594 18.347656 21.898438 17.75 21.898438 C 16.925781 21.898438 16.117188 21.730469 15.351562 21.398438 C 13.648438 20.660156 12.363281 19.171875 11.851562 17.367188 C 12.738281 16.886719 13.726562 16.636719 14.730469 16.636719 M 14.730469 16.039062 C 13.464844 16.039062 12.234375 16.402344 11.171875 17.070312 C 11.621094 19.179688 13.027344 21.042969 15.121094 21.949219 C 15.980469 22.320312 16.871094 22.496094 17.75 22.496094 C 18.410156 22.496094 19.0625 22.398438 19.6875 22.207031 C 20.253906 22.03125 20.800781 21.78125 21.304688 21.464844 C 20.859375 19.355469 19.453125 17.496094 17.359375 16.585938 C 16.5 16.214844 15.605469 16.039062 14.730469 16.039062 Z M 14.730469 16.039062 " fill-opacity="1" fill-rule="nonzero"/><path fill="#ffffff" d="M 28.992188 31.902344 C 26.976562 31.78125 25.125 30.707031 24.003906 28.992188 C 23.171875 27.71875 22.800781 26.183594 22.960938 24.664062 C 23.015625 24.160156 23.125 23.660156 23.289062 23.183594 C 25.300781 23.304688 27.152344 24.378906 28.273438 26.09375 C 29.394531 27.804688 29.65625 29.960938 28.992188 31.902344 Z M 28.992188 31.902344 " fill-opacity="1" fill-rule="nonzero"/><path fill="#000000" d="M 23.496094 23.5 C 25.328125 23.679688 27 24.6875 28.027344 26.257812 C 29.054688 27.832031 29.328125 29.792969 28.785156 31.585938 C 26.949219 31.410156 25.277344 30.398438 24.25 28.828125 C 23.457031 27.613281 23.101562 26.144531 23.253906 24.695312 C 23.296875 24.289062 23.375 23.890625 23.496094 23.5 M 23.085938 22.875 C 22.871094 23.441406 22.730469 24.03125 22.667969 24.632812 C 22.507812 26.171875 22.855469 27.769531 23.761719 29.160156 C 25.023438 31.089844 27.078125 32.15625 29.191406 32.210938 C 29.953125 30.203125 29.78125 27.855469 28.515625 25.925781 C 27.253906 23.996094 25.199219 22.929688 23.085938 22.875 Z M 23.085938 22.875 " fill-opacity="1" fill-rule="nonzero"/><path fill="#ffffff" d="M 27.308594 22.164062 C 26.636719 22.164062 25.96875 22.058594 25.324219 21.84375 C 24.851562 21.6875 24.394531 21.476562 23.96875 21.214844 C 24.5 19.230469 25.914062 17.605469 27.789062 16.839844 C 28.554688 16.527344 29.359375 16.371094 30.175781 16.371094 C 31.355469 16.371094 32.503906 16.699219 33.515625 17.320312 C 32.984375 19.304688 31.570312 20.929688 29.695312 21.695312 C 28.929688 22.007812 28.125 22.164062 27.308594 22.164062 Z M 27.308594 22.164062 " fill-opacity="1" fill-rule="nonzero"/><path fill="#000000" d="M 30.175781 16.667969 C 31.226562 16.667969 32.253906 16.941406 33.167969 17.460938 C 32.621094 19.253906 31.304688 20.714844 29.585938 21.417969 C 28.855469 21.714844 28.085938 21.867188 27.308594 21.867188 C 26.664062 21.867188 26.027344 21.761719 25.414062 21.5625 C 25.035156 21.433594 24.664062 21.269531 24.316406 21.074219 C 24.863281 19.28125 26.179688 17.820312 27.898438 17.117188 C 28.628906 16.820312 29.398438 16.667969 30.175781 16.667969 M 30.175781 16.070312 C 29.34375 16.070312 28.5 16.230469 27.679688 16.5625 C 25.566406 17.425781 24.121094 19.253906 23.632812 21.351562 C 24.128906 21.683594 24.667969 21.945312 25.234375 22.128906 C 25.898438 22.347656 26.597656 22.464844 27.308594 22.464844 C 28.140625 22.464844 28.984375 22.304688 29.804688 21.972656 C 31.917969 21.109375 33.363281 19.28125 33.851562 17.183594 C 32.765625 16.464844 31.488281 16.070312 30.175781 16.070312 Z M 30.175781 16.070312 " fill-opacity="1" fill-rule="nonzero"/><path fill="#000000" d="M 20.828125 22.4375 C 20.914062 22.644531 21.308594 22.671875 21.710938 22.496094 C 21.902344 22.414062 22.0625 22.296875 22.167969 22.171875 C 22.089844 22.320312 22.042969 22.523438 22.039062 22.75 C 22.039062 23.191406 22.214844 23.550781 22.4375 23.554688 C 22.660156 23.554688 22.839844 23.195312 22.84375 22.753906 C 22.847656 22.527344 22.800781 22.320312 22.722656 22.171875 C 22.828125 22.296875 22.984375 22.414062 23.179688 22.496094 C 23.582031 22.671875 23.976562 22.644531 24.0625 22.4375 C 24.148438 22.226562 23.894531 21.917969 23.496094 21.746094 C 23.261719 21.640625 23.027344 21.609375 22.855469 21.644531 C 23.011719 21.570312 23.1875 21.410156 23.324219 21.191406 C 23.554688 20.816406 23.59375 20.417969 23.40625 20.296875 C 23.21875 20.171875 22.878906 20.378906 22.644531 20.753906 C 22.410156 21.125 22.375 21.527344 22.5625 21.648438 C 22.613281 21.683594 22.675781 21.691406 22.742188 21.679688 C 22.683594 21.707031 22.636719 21.75 22.613281 21.804688 C 22.585938 21.875 22.597656 21.960938 22.640625 22.046875 C 22.582031 21.984375 22.515625 21.949219 22.449219 21.949219 C 22.375 21.949219 22.308594 21.984375 22.25 22.050781 C 22.292969 21.964844 22.304688 21.878906 22.277344 21.804688 C 22.253906 21.75 22.210938 21.710938 22.152344 21.679688 C 22.203125 21.6875 22.25 21.683594 22.292969 21.660156 C 22.492188 21.558594 22.492188 21.15625 22.296875 20.761719 C 22.101562 20.363281 21.78125 20.125 21.582031 20.226562 C 21.382812 20.332031 21.382812 20.734375 21.578125 21.128906 C 21.703125 21.375 21.871094 21.5625 22.03125 21.640625 C 21.863281 21.609375 21.628906 21.640625 21.394531 21.742188 C 20.992188 21.917969 20.742188 22.226562 20.828125 22.4375 Z M 20.828125 22.4375 " fill-opacity="1" fill-rule="nonzero"/><path fill="#000000" d="M 22.828125 18.929688 C 22.828125 19.269531 22.792969 19.558594 22.71875 19.796875 C 22.644531 20.039062 22.554688 20.15625 22.449219 20.15625 C 22.34375 20.15625 22.253906 20.039062 22.179688 19.796875 C 22.105469 19.558594 22.070312 19.269531 22.070312 18.929688 C 22.070312 18.589844 22.105469 18.300781 22.179688 18.0625 C 22.253906 17.824219 22.34375 17.703125 22.449219 17.703125 C 22.554688 17.703125 22.644531 17.824219 22.71875 18.0625 C 22.792969 18.300781 22.828125 18.589844 22.828125 18.929688 Z M 22.828125 18.929688 " fill-opacity="1" fill-rule="nonzero"/><path fill="#000000" d="M 19.828125 21.304688 C 19.515625 21.183594 19.265625 21.046875 19.070312 20.890625 C 18.875 20.738281 18.796875 20.609375 18.835938 20.511719 C 18.871094 20.410156 19.011719 20.367188 19.257812 20.378906 C 19.503906 20.394531 19.785156 20.460938 20.09375 20.578125 C 20.40625 20.695312 20.660156 20.832031 20.851562 20.988281 C 21.046875 21.144531 21.125 21.269531 21.089844 21.371094 C 21.050781 21.472656 20.910156 21.515625 20.664062 21.5 C 20.417969 21.488281 20.140625 21.421875 19.828125 21.304688 Z M 19.828125 21.304688 " fill-opacity="1" fill-rule="nonzero"/><path fill="#000000" d="M 25.136719 21.164062 C 24.824219 21.28125 24.546875 21.347656 24.300781 21.359375 C 24.054688 21.375 23.914062 21.332031 23.875 21.230469 C 23.839844 21.128906 23.917969 21.003906 24.113281 20.847656 C 24.304688 20.691406 24.558594 20.554688 24.871094 20.4375 C 25.179688 20.320312 25.460938 20.253906 25.707031 20.238281 C 25.953125 20.226562 26.09375 20.269531 26.128906 20.371094 C 26.167969 20.46875 26.089844 20.597656 25.894531 20.75 C 25.699219 20.90625 25.449219 21.042969 25.136719 21.164062 Z M 25.136719 21.164062 " fill-opacity="1" fill-rule="nonzero"/><path fill="#000000" d="M 23.574219 24.222656 C 23.363281 23.960938 23.214844 23.710938 23.125 23.476562 C 23.035156 23.246094 23.03125 23.09375 23.113281 23.027344 C 23.191406 22.960938 23.335938 22.996094 23.542969 23.132812 C 23.746094 23.273438 23.953125 23.472656 24.164062 23.738281 C 24.375 24 24.523438 24.25 24.613281 24.480469 C 24.703125 24.714844 24.707031 24.867188 24.628906 24.933594 C 24.546875 25 24.402344 24.964844 24.195312 24.828125 C 23.992188 24.6875 23.785156 24.488281 23.574219 24.222656 Z M 23.574219 24.222656 " fill-opacity="1" fill-rule="nonzero"/><path fill="#000000" d="M 21.191406 24.316406 C 20.980469 24.578125 20.773438 24.78125 20.566406 24.917969 C 20.363281 25.058594 20.21875 25.09375 20.136719 25.027344 C 20.054688 24.957031 20.058594 24.808594 20.148438 24.574219 C 20.242188 24.339844 20.390625 24.09375 20.601562 23.828125 C 20.808594 23.566406 21.015625 23.363281 21.222656 23.226562 C 21.425781 23.085938 21.570312 23.050781 21.652344 23.117188 C 21.734375 23.1875 21.730469 23.335938 21.640625 23.570312 C 21.550781 23.804688 21.398438 24.050781 21.191406 24.316406 Z M 21.191406 24.316406 " fill-opacity="1" fill-rule="nonzero"/><path fill="#ffffff" d="M 26.121094 16.261719 C 26.234375 15.742188 26.292969 15.207031 26.289062 14.667969 C 26.289062 13.808594 26.136719 12.96875 25.839844 12.167969 C 26.960938 10.980469 28.5 10.257812 30.121094 10.164062 C 30.285156 10.644531 30.390625 11.144531 30.445312 11.648438 C 30.558594 12.777344 30.382812 13.914062 29.9375 14.949219 C 29.117188 14.980469 28.3125 15.152344 27.546875 15.46875 C 27.039062 15.679688 26.5625 15.941406 26.121094 16.261719 Z M 26.121094 16.261719 " fill-opacity="1" fill-rule="nonzero"/><g clip-path="url(#e8e45e659f)"><path fill="#000000" d="M 29.914062 10.480469 C 30.03125 10.871094 30.109375 11.273438 30.152344 11.679688 C 30.253906 12.695312 30.113281 13.71875 29.738281 14.660156 C 28.949219 14.707031 28.175781 14.886719 27.4375 15.191406 C 27.121094 15.320312 26.816406 15.472656 26.527344 15.644531 C 26.566406 15.320312 26.585938 14.996094 26.585938 14.667969 C 26.582031 13.835938 26.445312 13.023438 26.179688 12.242188 C 27.183594 11.242188 28.511719 10.617188 29.914062 10.480469 M 30.324219 9.859375 C 28.519531 9.902344 26.761719 10.679688 25.496094 12.101562 C 25.816406 12.894531 25.992188 13.761719 25.996094 14.671875 C 26 15.527344 25.847656 16.351562 25.566406 17.109375 C 26.15625 16.542969 26.859375 16.074219 27.65625 15.746094 C 28.46875 15.414062 29.304688 15.253906 30.128906 15.246094 C 30.664062 14.089844 30.859375 12.835938 30.734375 11.617188 C 30.675781 11.015625 30.535156 10.421875 30.324219 9.859375 Z M 30.324219 9.859375 " fill-opacity="1" fill-rule="nonzero"/></g><path fill="#ffffff" d="M 18.855469 16.261719 C 18.414062 15.941406 17.9375 15.679688 17.425781 15.46875 C 16.660156 15.152344 15.859375 14.980469 15.035156 14.949219 C 14.589844 13.914062 14.417969 12.777344 14.53125 11.648438 C 14.582031 11.144531 14.691406 10.644531 14.855469 10.164062 C 16.472656 10.257812 18.015625 10.980469 19.136719 12.167969 C 18.839844 12.96875 18.6875 13.808594 18.683594 14.667969 C 18.683594 15.207031 18.738281 15.742188 18.855469 16.261719 Z M 18.855469 16.261719 " fill-opacity="1" fill-rule="nonzero"/><g clip-path="url(#f213b0052a)"><path fill="#000000" d="M 15.0625 10.480469 C 16.464844 10.617188 17.792969 11.242188 18.796875 12.242188 C 18.53125 13.023438 18.394531 13.835938 18.390625 14.667969 C 18.390625 14.996094 18.410156 15.320312 18.449219 15.644531 C 18.15625 15.472656 17.851562 15.320312 17.539062 15.191406 C 16.796875 14.886719 16.027344 14.710938 15.234375 14.660156 C 14.863281 13.71875 14.71875 12.695312 14.824219 11.679688 C 14.863281 11.273438 14.945312 10.871094 15.0625 10.480469 M 14.652344 9.859375 C 14.441406 10.421875 14.300781 11.015625 14.238281 11.617188 C 14.117188 12.835938 14.308594 14.089844 14.847656 15.246094 C 15.671875 15.253906 16.507812 15.414062 17.316406 15.746094 C 18.117188 16.074219 18.816406 16.542969 19.40625 17.109375 C 19.128906 16.351562 18.976562 15.527344 18.976562 14.671875 C 18.980469 13.761719 19.160156 12.894531 19.476562 12.101562 C 18.210938 10.679688 16.453125 9.902344 14.652344 9.859375 Z M 14.652344 9.859375 " fill-opacity="1" fill-rule="nonzero"/></g><path fill="#ffffff" d="M 14.125 26.867188 C 12.773438 26.867188 11.433594 26.421875 10.335938 25.605469 C 10.507812 25.128906 10.734375 24.671875 11.007812 24.25 C 11.621094 23.300781 12.460938 22.535156 13.449219 22.019531 C 14.105469 22.527344 14.832031 22.910156 15.621094 23.160156 C 16.144531 23.328125 16.679688 23.429688 17.21875 23.46875 C 16.808594 23.796875 16.433594 24.171875 16.097656 24.59375 C 15.566406 25.261719 15.160156 26.007812 14.894531 26.820312 C 14.640625 26.851562 14.382812 26.867188 14.125 26.867188 Z M 14.125 26.867188 " fill-opacity="1" fill-rule="nonzero"/><g clip-path="url(#52e80c4ccf)"><path fill="#000000" d="M 13.425781 22.371094 C 14.066406 22.84375 14.773438 23.207031 15.535156 23.449219 C 15.859375 23.550781 16.1875 23.628906 16.523438 23.6875 C 16.289062 23.910156 16.074219 24.148438 15.871094 24.402344 C 15.355469 25.050781 14.957031 25.765625 14.679688 26.542969 C 14.496094 26.558594 14.308594 26.566406 14.125 26.566406 C 12.910156 26.566406 11.707031 26.191406 10.695312 25.496094 C 10.84375 25.117188 11.03125 24.753906 11.253906 24.414062 C 11.804688 23.5625 12.550781 22.859375 13.425781 22.371094 M 13.488281 21.667969 C 12.351562 22.21875 11.421875 23.0625 10.761719 24.085938 C 10.4375 24.589844 10.175781 25.136719 9.988281 25.714844 C 11.15625 26.640625 12.613281 27.164062 14.125 27.164062 C 14.453125 27.164062 14.785156 27.140625 15.117188 27.089844 C 15.363281 26.273438 15.765625 25.488281 16.328125 24.78125 C 16.859375 24.113281 17.484375 23.578125 18.175781 23.171875 C 18.019531 23.179688 17.863281 23.1875 17.707031 23.1875 C 17.046875 23.1875 16.375 23.085938 15.710938 22.875 C 14.875 22.613281 14.128906 22.195312 13.488281 21.667969 Z M 13.488281 21.667969 " fill-opacity="1" fill-rule="nonzero"/></g><path fill="#ffffff" d="M 22.503906 35.726562 C 22.101562 35.429688 21.734375 35.082031 21.410156 34.695312 C 20.683594 33.835938 20.191406 32.800781 19.976562 31.691406 C 20.636719 31.1875 21.199219 30.578125 21.652344 29.875 C 21.953125 29.410156 22.195312 28.914062 22.378906 28.394531 C 22.578125 28.890625 22.828125 29.359375 23.132812 29.800781 C 23.617188 30.507812 24.210938 31.109375 24.902344 31.59375 C 24.644531 33.222656 23.785156 34.710938 22.503906 35.726562 Z M 22.503906 35.726562 " fill-opacity="1" fill-rule="nonzero"/><g clip-path="url(#2686b32aa3)"><path fill="#000000" d="M 22.394531 29.136719 C 22.542969 29.425781 22.707031 29.703125 22.890625 29.972656 C 23.359375 30.65625 23.925781 31.246094 24.582031 31.730469 C 24.316406 33.136719 23.578125 34.421875 22.5 35.347656 C 22.183594 35.09375 21.894531 34.8125 21.632812 34.5 C 20.980469 33.726562 20.523438 32.804688 20.304688 31.8125 C 20.925781 31.3125 21.460938 30.71875 21.898438 30.039062 C 22.085938 29.75 22.25 29.449219 22.394531 29.136719 M 22.363281 27.375 C 22.195312 28.1875 21.878906 28.976562 21.40625 29.710938 C 20.929688 30.457031 20.328125 31.074219 19.65625 31.558594 C 19.863281 32.820312 20.40625 33.964844 21.1875 34.890625 C 21.574219 35.351562 22.019531 35.757812 22.511719 36.097656 C 23.964844 35.015625 24.976562 33.351562 25.21875 31.449219 C 24.515625 30.984375 23.882812 30.375 23.375 29.628906 C 22.890625 28.925781 22.554688 28.164062 22.363281 27.375 Z M 22.363281 27.375 " fill-opacity="1" fill-rule="nonzero"/></g><g clip-path="url(#5ecc001418)"><path fill="#ffffff" d="M 30.597656 26.867188 C 30.339844 26.867188 30.082031 26.851562 29.828125 26.820312 C 29.5625 26.007812 29.15625 25.261719 28.625 24.59375 C 28.289062 24.171875 27.917969 23.796875 27.503906 23.46875 C 28.042969 23.429688 28.578125 23.328125 29.101562 23.160156 C 29.890625 22.910156 30.621094 22.527344 31.273438 22.019531 C 32.261719 22.535156 33.101562 23.300781 33.714844 24.25 C 33.988281 24.671875 34.214844 25.128906 34.386719 25.605469 C 33.289062 26.421875 31.949219 26.867188 30.597656 26.867188 Z M 30.597656 26.867188 " fill-opacity="1" fill-rule="nonzero"/></g><g clip-path="url(#4e8b3ac806)"><path fill="#000000" d="M 31.300781 22.371094 C 32.171875 22.859375 32.917969 23.5625 33.46875 24.414062 C 33.691406 24.753906 33.878906 25.117188 34.03125 25.496094 C 33.019531 26.1875 31.8125 26.566406 30.597656 26.566406 C 30.414062 26.566406 30.226562 26.558594 30.042969 26.542969 C 29.765625 25.765625 29.367188 25.050781 28.851562 24.402344 C 28.648438 24.148438 28.433594 23.910156 28.199219 23.6875 C 28.535156 23.628906 28.863281 23.550781 29.1875 23.449219 C 29.949219 23.207031 30.65625 22.84375 31.300781 22.371094 M 31.238281 21.667969 C 30.59375 22.195312 29.847656 22.613281 29.011719 22.875 C 28.347656 23.085938 27.675781 23.1875 27.015625 23.1875 C 26.859375 23.1875 26.703125 23.179688 26.550781 23.171875 C 27.238281 23.578125 27.867188 24.113281 28.398438 24.78125 C 28.957031 25.488281 29.359375 26.273438 29.605469 27.089844 C 29.9375 27.140625 30.269531 27.164062 30.597656 27.164062 C 32.109375 27.164062 33.566406 26.640625 34.734375 25.714844 C 34.546875 25.136719 34.285156 24.589844 33.960938 24.085938 C 33.300781 23.0625 32.371094 22.21875 31.238281 21.667969 Z M 31.238281 21.667969 " fill-opacity="1" fill-rule="nonzero"/></g><g clip-path="url(#e5c13f1a67)"><path fill="#000000" d="M 22.519531 20.121094 C 21.171875 19.101562 20.375 17.507812 20.375 15.820312 C 20.375 14.128906 21.171875 12.535156 22.519531 11.515625 C 22.851562 11.769531 23.15625 12.058594 23.421875 12.378906 C 24.222656 13.34375 24.664062 14.5625 24.664062 15.820312 C 24.664062 17.507812 23.867188 19.101562 22.519531 20.121094 Z M 22.519531 20.121094 " fill-opacity="1" fill-rule="nonzero"/><path fill="#ffffff" d="M 22.519531 11.828125 C 22.78125 12.042969 23.019531 12.277344 23.234375 12.535156 C 24 13.453125 24.417969 14.621094 24.417969 15.820312 C 24.417969 17.367188 23.714844 18.835938 22.519531 19.808594 C 21.324219 18.835938 20.621094 17.367188 20.621094 15.820312 C 20.621094 14.269531 21.324219 12.804688 22.519531 11.828125 M 22.519531 11.214844 C 21.074219 12.234375 20.128906 13.914062 20.128906 15.820312 C 20.128906 17.722656 21.074219 19.40625 22.519531 20.425781 C 23.964844 19.40625 24.910156 17.722656 24.910156 15.820312 C 24.910156 14.449219 24.421875 13.195312 23.609375 12.222656 C 23.292969 11.839844 22.925781 11.5 22.519531 11.214844 Z M 22.519531 11.214844 " fill-opacity="1" fill-rule="nonzero"/></g><path fill="#000000" d="M 16.984375 29.914062 C 16.429688 28.320312 16.648438 26.550781 17.585938 25.144531 C 18.523438 23.738281 20.074219 22.851562 21.757812 22.753906 C 21.894531 23.148438 21.988281 23.554688 22.03125 23.96875 C 22.164062 25.21875 21.851562 26.476562 21.15625 27.523438 C 20.21875 28.929688 18.671875 29.8125 16.984375 29.914062 Z M 16.984375 29.914062 " fill-opacity="1" fill-rule="nonzero"/><path fill="#ffffff" d="M 21.585938 23.011719 C 21.683594 23.332031 21.75 23.664062 21.785156 23.996094 C 21.914062 25.1875 21.617188 26.390625 20.953125 27.386719 C 20.09375 28.675781 18.695312 29.503906 17.160156 29.652344 C 16.703125 28.179688 16.929688 26.570312 17.789062 25.277344 C 18.648438 23.988281 20.050781 23.160156 21.585938 23.011719 M 21.925781 22.5 C 20.15625 22.546875 18.4375 23.421875 17.382812 25.007812 C 16.324219 26.589844 16.179688 28.515625 16.816406 30.164062 C 18.585938 30.117188 20.304688 29.242188 21.359375 27.660156 C 22.121094 26.519531 22.410156 25.207031 22.273438 23.945312 C 22.222656 23.449219 22.105469 22.964844 21.925781 22.5 Z M 21.925781 22.5 " fill-opacity="1" fill-rule="nonzero"/><path fill="#000000" d="M 18.589844 21.945312 C 17.863281 21.945312 17.15625 21.800781 16.484375 21.515625 C 14.929688 20.855469 13.773438 19.496094 13.367188 17.859375 C 14.1875 17.382812 15.113281 17.136719 16.058594 17.136719 C 16.785156 17.136719 17.492188 17.28125 18.164062 17.566406 C 19.71875 18.226562 20.875 19.585938 21.28125 21.222656 C 20.921875 21.429688 20.539062 21.597656 20.136719 21.71875 C 19.632812 21.867188 19.113281 21.945312 18.589844 21.945312 Z M 18.589844 21.945312 " fill-opacity="1" fill-rule="nonzero"/><path fill="#ffffff" d="M 16.0625 17.382812 C 16.75 17.382812 17.425781 17.519531 18.066406 17.792969 C 19.492188 18.398438 20.566406 19.621094 20.996094 21.101562 C 20.699219 21.257812 20.386719 21.386719 20.066406 21.480469 C 19.585938 21.625 19.089844 21.699219 18.589844 21.699219 C 17.898438 21.699219 17.222656 21.5625 16.582031 21.289062 C 15.15625 20.683594 14.082031 19.460938 13.652344 17.980469 C 14.394531 17.585938 15.222656 17.382812 16.0625 17.382812 M 16.0625 16.890625 C 15.003906 16.890625 13.972656 17.1875 13.085938 17.738281 C 13.457031 19.46875 14.636719 20.996094 16.390625 21.742188 C 17.109375 22.046875 17.855469 22.191406 18.589844 22.191406 C 19.140625 22.191406 19.6875 22.109375 20.207031 21.953125 C 20.683594 21.808594 21.140625 21.605469 21.5625 21.34375 C 21.191406 19.613281 20.011719 18.085938 18.261719 17.339844 C 17.542969 17.035156 16.792969 16.890625 16.0625 16.890625 Z M 16.0625 16.890625 " fill-opacity="1" fill-rule="nonzero"/><path fill="#000000" d="M 27.992188 29.914062 C 26.308594 29.8125 24.757812 28.929688 23.820312 27.523438 C 23.125 26.476562 22.816406 25.21875 22.949219 23.96875 C 22.992188 23.554688 23.082031 23.148438 23.222656 22.753906 C 24.90625 22.851562 26.457031 23.738281 27.390625 25.144531 C 28.328125 26.550781 28.550781 28.320312 27.992188 29.914062 Z M 27.992188 29.914062 " fill-opacity="1" fill-rule="nonzero"/><path fill="#ffffff" d="M 23.394531 23.011719 C 24.929688 23.160156 26.328125 23.988281 27.1875 25.277344 C 28.046875 26.570312 28.273438 28.179688 27.820312 29.652344 C 26.285156 29.503906 24.886719 28.675781 24.027344 27.386719 C 23.363281 26.390625 23.066406 25.1875 23.191406 23.996094 C 23.226562 23.664062 23.296875 23.332031 23.394531 23.011719 M 23.050781 22.5 C 22.875 22.964844 22.757812 23.449219 22.703125 23.945312 C 22.570312 25.207031 22.859375 26.519531 23.617188 27.660156 C 24.671875 29.242188 26.394531 30.117188 28.160156 30.164062 C 28.800781 28.515625 28.652344 26.589844 27.597656 25.007812 C 26.539062 23.421875 24.820312 22.546875 23.050781 22.5 Z M 23.050781 22.5 " fill-opacity="1" fill-rule="nonzero"/><path fill="#000000" d="M 26.585938 21.917969 C 26.023438 21.917969 25.464844 21.832031 24.925781 21.65625 C 24.527344 21.527344 24.148438 21.355469 23.789062 21.136719 C 24.234375 19.511719 25.417969 18.175781 26.988281 17.546875 C 27.628906 17.292969 28.300781 17.164062 28.984375 17.164062 C 29.972656 17.164062 30.933594 17.433594 31.777344 17.941406 C 31.335938 19.570312 30.152344 20.90625 28.582031 21.53125 C 27.941406 21.789062 27.269531 21.917969 26.585938 21.917969 Z M 26.585938 21.917969 " fill-opacity="1" fill-rule="nonzero"/><path fill="#ffffff" d="M 28.984375 17.40625 C 29.863281 17.40625 30.722656 17.632812 31.488281 18.058594 C 31.027344 19.53125 29.929688 20.730469 28.492188 21.304688 C 27.878906 21.550781 27.238281 21.671875 26.585938 21.671875 C 26.046875 21.671875 25.515625 21.589844 25 21.421875 C 24.683594 21.320312 24.375 21.183594 24.082031 21.023438 C 24.539062 19.550781 25.640625 18.351562 27.078125 17.777344 C 27.691406 17.53125 28.332031 17.40625 28.984375 17.40625 M 28.984375 16.917969 C 28.289062 16.917969 27.582031 17.046875 26.898438 17.320312 C 25.128906 18.027344 23.917969 19.53125 23.507812 21.25 C 23.925781 21.523438 24.378906 21.738281 24.851562 21.890625 C 25.40625 22.070312 25.992188 22.164062 26.585938 22.164062 C 27.28125 22.164062 27.988281 22.035156 28.671875 21.761719 C 30.441406 21.054688 31.652344 19.550781 32.0625 17.832031 C 31.152344 17.238281 30.082031 16.917969 28.984375 16.917969 Z M 28.984375 16.917969 " fill-opacity="1" fill-rule="nonzero"/><path fill="#ffffff" d="M 21.164062 22.140625 C 21.234375 22.3125 21.566406 22.335938 21.902344 22.191406 C 22.0625 22.121094 22.195312 22.027344 22.285156 21.925781 C 22.21875 22.042969 22.179688 22.210938 22.179688 22.398438 C 22.175781 22.761719 22.324219 23.058594 22.507812 23.058594 C 22.695312 23.058594 22.847656 22.765625 22.851562 22.402344 C 22.851562 22.214844 22.8125 22.046875 22.75 21.925781 C 22.835938 22.027344 22.96875 22.121094 23.132812 22.191406 C 23.464844 22.335938 23.796875 22.3125 23.871094 22.140625 C 23.941406 21.96875 23.730469 21.714844 23.394531 21.574219 C 23.199219 21.488281 23.003906 21.460938 22.859375 21.488281 C 22.992188 21.429688 23.136719 21.300781 23.25 21.121094 C 23.445312 20.8125 23.476562 20.484375 23.320312 20.382812 C 23.164062 20.285156 22.878906 20.453125 22.683594 20.757812 C 22.488281 21.066406 22.457031 21.394531 22.613281 21.496094 C 22.65625 21.523438 22.710938 21.527344 22.765625 21.519531 C 22.714844 21.542969 22.675781 21.578125 22.660156 21.625 C 22.632812 21.683594 22.640625 21.75 22.679688 21.820312 C 22.632812 21.769531 22.578125 21.742188 22.519531 21.742188 C 22.457031 21.742188 22.402344 21.773438 22.351562 21.824219 C 22.390625 21.753906 22.398438 21.683594 22.375 21.625 C 22.355469 21.578125 22.320312 21.546875 22.269531 21.519531 C 22.3125 21.527344 22.351562 21.523438 22.390625 21.503906 C 22.554688 21.421875 22.554688 21.089844 22.390625 20.765625 C 22.226562 20.441406 21.960938 20.246094 21.792969 20.328125 C 21.628906 20.414062 21.628906 20.742188 21.792969 21.070312 C 21.894531 21.273438 22.039062 21.425781 22.171875 21.488281 C 22.027344 21.460938 21.832031 21.488281 21.636719 21.574219 C 21.300781 21.714844 21.089844 21.96875 21.164062 22.140625 Z M 21.164062 22.140625 " fill-opacity="1" fill-rule="nonzero"/><path fill="#ffffff" d="M 22.835938 19.261719 C 22.835938 19.542969 22.804688 19.777344 22.746094 19.976562 C 22.683594 20.171875 22.605469 20.269531 22.519531 20.269531 C 22.433594 20.269531 22.355469 20.171875 22.296875 19.976562 C 22.234375 19.777344 22.203125 19.542969 22.203125 19.261719 C 22.203125 18.984375 22.234375 18.75 22.296875 18.550781 C 22.355469 18.355469 22.433594 18.257812 22.519531 18.257812 C 22.605469 18.257812 22.683594 18.355469 22.746094 18.550781 C 22.804688 18.75 22.835938 18.984375 22.835938 19.261719 Z M 22.835938 19.261719 " fill-opacity="1" fill-rule="nonzero"/><path fill="#ffffff" d="M 20.328125 21.210938 C 20.066406 21.113281 19.855469 21 19.691406 20.875 C 19.53125 20.746094 19.464844 20.640625 19.496094 20.558594 C 19.527344 20.476562 19.644531 20.441406 19.851562 20.453125 C 20.054688 20.464844 20.289062 20.519531 20.550781 20.617188 C 20.808594 20.714844 21.023438 20.824219 21.183594 20.953125 C 21.347656 21.082031 21.414062 21.183594 21.382812 21.265625 C 21.351562 21.347656 21.230469 21.386719 21.027344 21.375 C 20.820312 21.363281 20.585938 21.308594 20.328125 21.210938 Z M 20.328125 21.210938 " fill-opacity="1" fill-rule="nonzero"/><path fill="#ffffff" d="M 24.769531 21.09375 C 24.507812 21.191406 24.273438 21.246094 24.070312 21.257812 C 23.863281 21.269531 23.746094 21.234375 23.714844 21.152344 C 23.683594 21.070312 23.75 20.964844 23.910156 20.835938 C 24.074219 20.710938 24.285156 20.597656 24.546875 20.5 C 24.804688 20.402344 25.039062 20.347656 25.246094 20.335938 C 25.449219 20.328125 25.570312 20.363281 25.601562 20.445312 C 25.628906 20.527344 25.566406 20.632812 25.402344 20.757812 C 25.238281 20.886719 25.027344 20.996094 24.769531 21.09375 Z M 24.769531 21.09375 " fill-opacity="1" fill-rule="nonzero"/><path fill="#ffffff" d="M 23.460938 23.609375 C 23.285156 23.390625 23.160156 23.1875 23.085938 22.996094 C 23.007812 22.804688 23.003906 22.679688 23.074219 22.625 C 23.140625 22.570312 23.261719 22.601562 23.433594 22.714844 C 23.605469 22.828125 23.78125 22.992188 23.953125 23.207031 C 24.128906 23.425781 24.253906 23.628906 24.332031 23.820312 C 24.40625 24.011719 24.410156 24.136719 24.339844 24.191406 C 24.273438 24.246094 24.152344 24.21875 23.980469 24.101562 C 23.808594 23.988281 23.636719 23.824219 23.460938 23.609375 Z M 23.460938 23.609375 " fill-opacity="1" fill-rule="nonzero"/><path fill="#ffffff" d="M 21.464844 23.683594 C 21.292969 23.898438 21.117188 24.066406 20.945312 24.179688 C 20.773438 24.292969 20.652344 24.320312 20.585938 24.265625 C 20.515625 24.210938 20.519531 24.089844 20.597656 23.894531 C 20.671875 23.703125 20.796875 23.5 20.972656 23.285156 C 21.148438 23.066406 21.320312 22.902344 21.492188 22.789062 C 21.664062 22.675781 21.785156 22.644531 21.851562 22.703125 C 21.921875 22.757812 21.917969 22.878906 21.84375 23.070312 C 21.765625 23.265625 21.640625 23.46875 21.464844 23.683594 Z M 21.464844 23.683594 " fill-opacity="1" fill-rule="nonzero"/><path fill="#000000" d="M 25.59375 17.074219 C 25.6875 16.644531 25.734375 16.207031 25.734375 15.765625 C 25.730469 15.058594 25.605469 14.371094 25.355469 13.710938 C 26.292969 12.738281 27.582031 12.144531 28.9375 12.070312 C 29.074219 12.464844 29.164062 12.871094 29.207031 13.285156 C 29.304688 14.214844 29.160156 15.148438 28.785156 15.996094 C 28.097656 16.019531 27.425781 16.164062 26.785156 16.421875 C 26.359375 16.59375 25.960938 16.8125 25.59375 17.074219 Z M 25.59375 17.074219 " fill-opacity="1" fill-rule="nonzero"/><g clip-path="url(#c5f2491c30)"><path fill="#ffffff" d="M 28.765625 12.328125 C 28.863281 12.648438 28.929688 12.976562 28.964844 13.3125 C 29.050781 14.144531 28.929688 14.984375 28.621094 15.757812 C 27.957031 15.796875 27.3125 15.945312 26.691406 16.195312 C 26.429688 16.300781 26.175781 16.425781 25.929688 16.566406 C 25.964844 16.300781 25.980469 16.035156 25.980469 15.765625 C 25.976562 15.082031 25.863281 14.414062 25.640625 13.777344 C 26.480469 12.953125 27.589844 12.4375 28.765625 12.328125 M 29.105469 11.816406 C 27.601562 11.851562 26.128906 12.492188 25.070312 13.660156 C 25.335938 14.308594 25.484375 15.019531 25.488281 15.765625 C 25.492188 16.472656 25.363281 17.144531 25.128906 17.769531 C 25.621094 17.304688 26.210938 16.917969 26.878906 16.648438 C 27.554688 16.375 28.253906 16.246094 28.945312 16.238281 C 29.394531 15.289062 29.554688 14.261719 29.453125 13.261719 C 29.402344 12.765625 29.285156 12.28125 29.105469 11.816406 Z M 29.105469 11.816406 " fill-opacity="1" fill-rule="nonzero"/></g><path fill="#000000" d="M 19.511719 17.074219 C 19.140625 16.8125 18.742188 16.59375 18.320312 16.421875 C 17.675781 16.164062 17.003906 16.019531 16.316406 15.996094 C 15.945312 15.148438 15.800781 14.214844 15.894531 13.285156 C 15.9375 12.871094 16.03125 12.464844 16.164062 12.070312 C 17.519531 12.144531 18.808594 12.738281 19.746094 13.710938 C 19.5 14.371094 19.371094 15.058594 19.371094 15.765625 C 19.367188 16.207031 19.414062 16.644531 19.511719 17.074219 Z M 19.511719 17.074219 " fill-opacity="1" fill-rule="nonzero"/><g clip-path="url(#4d10a8f167)"><path fill="#ffffff" d="M 16.339844 12.328125 C 17.511719 12.4375 18.625 12.953125 19.464844 13.773438 C 19.242188 14.414062 19.125 15.082031 19.125 15.765625 C 19.125 16.035156 19.140625 16.300781 19.171875 16.566406 C 18.929688 16.425781 18.675781 16.300781 18.410156 16.195312 C 17.792969 15.945312 17.144531 15.796875 16.484375 15.757812 C 16.171875 14.984375 16.054688 14.144531 16.140625 13.3125 C 16.175781 12.980469 16.242188 12.648438 16.339844 12.328125 M 15.996094 11.816406 C 15.820312 12.28125 15.703125 12.765625 15.652344 13.261719 C 15.546875 14.261719 15.710938 15.289062 16.160156 16.238281 C 16.847656 16.246094 17.546875 16.375 18.226562 16.648438 C 18.894531 16.917969 19.480469 17.304688 19.976562 17.769531 C 19.742188 17.144531 19.613281 16.472656 19.617188 15.765625 C 19.617188 15.019531 19.765625 14.308594 20.03125 13.660156 C 18.976562 12.492188 17.503906 11.851562 15.996094 11.816406 Z M 15.996094 11.816406 " fill-opacity="1" fill-rule="nonzero"/></g><g clip-path="url(#dd95a4bf71)"><path fill="#000000" d="M 15.554688 25.777344 C 14.421875 25.777344 13.304688 25.410156 12.386719 24.742188 C 12.53125 24.351562 12.71875 23.976562 12.949219 23.628906 C 13.460938 22.851562 14.164062 22.222656 14.992188 21.800781 C 15.539062 22.214844 16.148438 22.53125 16.808594 22.738281 C 17.246094 22.871094 17.691406 22.957031 18.144531 22.988281 C 17.800781 23.257812 17.484375 23.566406 17.207031 23.910156 C 16.761719 24.460938 16.421875 25.074219 16.199219 25.738281 C 15.984375 25.765625 15.769531 25.777344 15.558594 25.777344 C 15.554688 25.777344 15.554688 25.777344 15.554688 25.777344 Z M 15.554688 25.777344 " fill-opacity="1" fill-rule="nonzero"/></g><g clip-path="url(#d247c3a710)"><path fill="#ffffff" d="M 14.96875 22.089844 C 15.503906 22.476562 16.097656 22.773438 16.734375 22.972656 C 17.007812 23.054688 17.28125 23.121094 17.5625 23.167969 C 17.367188 23.351562 17.1875 23.546875 17.015625 23.757812 C 16.585938 24.285156 16.25 24.875 16.019531 25.511719 C 15.863281 25.523438 15.710938 25.53125 15.554688 25.53125 C 14.539062 25.53125 13.53125 25.222656 12.683594 24.652344 C 12.8125 24.34375 12.96875 24.042969 13.152344 23.765625 C 13.613281 23.066406 14.238281 22.488281 14.96875 22.089844 M 15.019531 21.511719 C 14.070312 21.960938 13.292969 22.65625 12.742188 23.496094 C 12.46875 23.910156 12.25 24.359375 12.09375 24.832031 C 13.070312 25.59375 14.289062 26.023438 15.554688 26.023438 C 15.832031 26.023438 16.109375 26.003906 16.386719 25.960938 C 16.589844 25.289062 16.925781 24.644531 17.398438 24.066406 C 17.839844 23.519531 18.367188 23.078125 18.941406 22.742188 C 18.8125 22.753906 18.683594 22.757812 18.550781 22.757812 C 18 22.757812 17.4375 22.675781 16.882812 22.503906 C 16.183594 22.285156 15.558594 21.941406 15.019531 21.511719 Z M 15.019531 21.511719 " fill-opacity="1" fill-rule="nonzero"/></g><g clip-path="url(#52254c8615)"><path fill="#000000" d="M 22.566406 33.050781 C 22.230469 32.804688 21.921875 32.519531 21.648438 32.203125 C 21.042969 31.5 20.628906 30.648438 20.453125 29.738281 C 21.003906 29.324219 21.472656 28.824219 21.851562 28.246094 C 22.105469 27.863281 22.308594 27.457031 22.460938 27.03125 C 22.628906 27.4375 22.835938 27.824219 23.089844 28.1875 C 23.496094 28.765625 23.992188 29.261719 24.570312 29.65625 C 24.359375 30.992188 23.636719 32.214844 22.566406 33.050781 Z M 22.566406 33.050781 " fill-opacity="1" fill-rule="nonzero"/></g><g clip-path="url(#27679aa045)"><path fill="#ffffff" d="M 22.472656 27.640625 C 22.597656 27.878906 22.734375 28.105469 22.890625 28.328125 C 23.28125 28.886719 23.757812 29.371094 24.304688 29.769531 C 24.082031 30.921875 23.460938 31.980469 22.5625 32.738281 C 22.296875 32.53125 22.054688 32.300781 21.835938 32.042969 C 21.289062 31.410156 20.910156 30.652344 20.726562 29.835938 C 21.246094 29.429688 21.691406 28.941406 22.058594 28.382812 C 22.214844 28.144531 22.351562 27.898438 22.472656 27.640625 M 22.445312 26.195312 C 22.304688 26.859375 22.042969 27.511719 21.648438 28.113281 C 21.246094 28.722656 20.746094 29.230469 20.183594 29.628906 C 20.355469 30.664062 20.808594 31.601562 21.464844 32.363281 C 21.789062 32.742188 22.160156 33.074219 22.570312 33.355469 C 23.789062 32.464844 24.632812 31.101562 24.835938 29.539062 C 24.25 29.15625 23.71875 28.65625 23.292969 28.046875 C 22.890625 27.46875 22.609375 26.839844 22.445312 26.195312 Z M 22.445312 26.195312 " fill-opacity="1" fill-rule="nonzero"/></g><path fill="#000000" d="M 29.335938 25.777344 C 29.121094 25.777344 28.90625 25.765625 28.695312 25.738281 C 28.46875 25.074219 28.132812 24.460938 27.6875 23.910156 C 27.40625 23.566406 27.09375 23.257812 26.75 22.988281 C 27.199219 22.957031 27.648438 22.871094 28.085938 22.738281 C 28.746094 22.53125 29.355469 22.214844 29.902344 21.800781 C 30.730469 22.222656 31.433594 22.851562 31.945312 23.628906 C 32.175781 23.976562 32.363281 24.351562 32.507812 24.742188 C 31.589844 25.410156 30.46875 25.777344 29.335938 25.777344 Z M 29.335938 25.777344 " fill-opacity="1" fill-rule="nonzero"/><path fill="#ffffff" d="M 29.925781 22.089844 C 30.65625 22.488281 31.28125 23.066406 31.742188 23.765625 C 31.925781 24.042969 32.082031 24.34375 32.207031 24.652344 C 31.363281 25.222656 30.355469 25.53125 29.335938 25.53125 C 29.183594 25.53125 29.027344 25.523438 28.875 25.511719 C 28.640625 24.875 28.308594 24.285156 27.878906 23.757812 C 27.707031 23.546875 27.527344 23.351562 27.332031 23.167969 C 27.609375 23.121094 27.886719 23.054688 28.15625 22.972656 C 28.792969 22.773438 29.386719 22.476562 29.925781 22.089844 M 29.871094 21.511719 C 29.335938 21.941406 28.710938 22.285156 28.011719 22.503906 C 27.457031 22.675781 26.894531 22.757812 26.339844 22.757812 C 26.210938 22.757812 26.078125 22.753906 25.949219 22.742188 C 26.523438 23.078125 27.050781 23.519531 27.496094 24.066406 C 27.964844 24.644531 28.300781 25.289062 28.507812 25.960938 C 28.785156 26.003906 29.0625 26.023438 29.335938 26.023438 C 30.605469 26.023438 31.820312 25.59375 32.796875 24.832031 C 32.640625 24.359375 32.421875 23.910156 32.152344 23.496094 C 31.597656 22.65625 30.820312 21.960938 29.871094 21.511719 Z M 29.871094 21.511719 " fill-opacity="1" fill-rule="nonzero"/></svg>